<mxfile host="app.diagrams.net" modified="2020-11-06T14:35:47.348Z" agent="5.0 (Macintosh; Intel Mac OS X 10_15_7) AppleWebKit/605.1.15 (KHTML, like Gecko) Version/14.0 Safari/605.1.15" etag="Vrr3O0ONhI2pgQboUpOb" version="13.9.2" type="github">
  <diagram name="Page-1" id="aaaa8250-4180-3840-79b5-4cada1eebb92">
    <mxGraphModel dx="3221" dy="1597" grid="1" gridSize="10" guides="1" tooltips="1" connect="1" arrows="1" fold="1" page="1" pageScale="1" pageWidth="850" pageHeight="1100" background="#ffffff" math="0" shadow="0">
      <root>
        <mxCell id="0" />
        <mxCell id="1" parent="0" />
        <mxCell id="d5ac148becb70bc-7" value="" style="verticalLabelPosition=bottom;html=1;verticalAlign=top;strokeWidth=1;dashed=0;shape=mxgraph.aws3d.flatDoubleEdge;fillColor=#000000;aspect=fixed;rounded=1;shadow=0;comic=0;fontFamily=Verdana;fontSize=12;flipV=1;" parent="1" vertex="1">
          <mxGeometry x="1855.5" y="1830" width="584" height="333" as="geometry" />
        </mxCell>
        <mxCell id="1a8abee3a6cfdf20-38" value="" style="verticalLabelPosition=bottom;html=1;verticalAlign=top;strokeWidth=1;dashed=0;shape=mxgraph.aws3d.flatDoubleEdge;fillColor=#000000;aspect=fixed;rounded=1;shadow=0;comic=0;fontFamily=Verdana;fontSize=12;flipV=1;" parent="1" vertex="1">
          <mxGeometry x="1590" y="2130" width="626" height="357" as="geometry" />
        </mxCell>
        <mxCell id="1a8abee3a6cfdf20-28" value="" style="verticalLabelPosition=bottom;html=1;verticalAlign=top;strokeWidth=1;dashed=0;shape=mxgraph.aws3d.flatDoubleEdge;fillColor=#000000;aspect=fixed;rounded=1;shadow=0;comic=0;fontFamily=Verdana;fontSize=12;flipV=1;" parent="1" vertex="1">
          <mxGeometry x="1070.04" y="1120" width="213.92" height="122" as="geometry" />
        </mxCell>
        <mxCell id="1a8abee3a6cfdf20-3" value="" style="edgeStyle=isometricEdgeStyle;endArrow=none;html=1;labelBackgroundColor=none;strokeWidth=5;fontFamily=Verdana;fontSize=12" parent="1" edge="1">
          <mxGeometry width="50" height="100" relative="1" as="geometry">
            <mxPoint x="291.24" y="1291" as="sourcePoint" />
            <mxPoint x="201.24" y="1051" as="targetPoint" />
            <Array as="points">
              <mxPoint x="241.24" y="1191" />
            </Array>
          </mxGeometry>
        </mxCell>
        <mxCell id="1a8abee3a6cfdf20-5" value="" style="edgeStyle=isometricEdgeStyle;endArrow=none;html=1;labelBackgroundColor=none;strokeColor=#000000;strokeWidth=5;fontFamily=Verdana;fontSize=12" parent="1" edge="1">
          <mxGeometry width="50" height="100" relative="1" as="geometry">
            <mxPoint x="-20" y="350.05999999999995" as="sourcePoint" />
            <mxPoint x="530" y="370.05999999999995" as="targetPoint" />
            <Array as="points">
              <mxPoint x="240" y="320" />
            </Array>
          </mxGeometry>
        </mxCell>
        <mxCell id="1a8abee3a6cfdf20-6" value="" style="verticalLabelPosition=bottom;html=1;verticalAlign=top;strokeWidth=1;dashed=0;shape=mxgraph.aws3d.elasticLoadBalancing;fillColor=#ECECEC;strokeColor=#5E5E5E;aspect=fixed;rounded=1;shadow=0;comic=0;fontSize=12;" parent="1" vertex="1">
          <mxGeometry x="312" y="948" width="92" height="88.17" as="geometry" />
        </mxCell>
        <mxCell id="1a8abee3a6cfdf20-7" value="" style="verticalLabelPosition=bottom;html=1;verticalAlign=top;strokeWidth=1;dashed=0;shape=mxgraph.aws3d.workflowService;fillColor=#ECECEC;strokeColor=#5E5E5E;aspect=fixed;rounded=1;shadow=0;comic=0;fontSize=12" parent="1" vertex="1">
          <mxGeometry x="249.8" y="1994" width="182.20000000000002" height="148.4" as="geometry" />
        </mxCell>
        <mxCell id="1a8abee3a6cfdf20-8" value="" style="verticalLabelPosition=bottom;html=1;verticalAlign=top;strokeWidth=1;dashed=0;shape=mxgraph.aws3d.cloudfront;fillColor=#ECECEC;strokeColor=#5E5E5E;aspect=fixed;rounded=1;shadow=0;comic=0;fontSize=12" parent="1" vertex="1">
          <mxGeometry x="339.2" y="109.60000000000002" width="103.8" height="169.79999999999998" as="geometry" />
        </mxCell>
        <mxCell id="1a8abee3a6cfdf20-9" value="" style="verticalLabelPosition=bottom;html=1;verticalAlign=top;strokeWidth=1;dashed=0;shape=mxgraph.aws3d.internetGateway;fillColor=#ECECEC;strokeColor=#5E5E5E;aspect=fixed;rounded=1;shadow=0;comic=0;fontSize=12;flipH=1;flipV=0;" parent="1" vertex="1">
          <mxGeometry x="1330" y="200" width="116.7" height="102.8" as="geometry" />
        </mxCell>
        <mxCell id="1a8abee3a6cfdf20-10" value="" style="verticalLabelPosition=bottom;html=1;verticalAlign=top;strokeWidth=1;dashed=0;shape=mxgraph.aws3d.internetGateway;fillColor=#ECECEC;strokeColor=#5E5E5E;aspect=fixed;rounded=1;shadow=0;comic=0;fontSize=12;flipH=1;flipV=0;" parent="1" vertex="1">
          <mxGeometry x="1734.8" y="490.00000000000006" width="116.7" height="102.8" as="geometry" />
        </mxCell>
        <mxCell id="1a8abee3a6cfdf20-11" value="" style="verticalLabelPosition=bottom;html=1;verticalAlign=top;strokeWidth=1;dashed=0;shape=mxgraph.aws3d.internetGateway;fillColor=#ECECEC;strokeColor=#5E5E5E;aspect=fixed;rounded=1;shadow=0;comic=0;fontSize=12;flipH=1;flipV=0;" parent="1" vertex="1">
          <mxGeometry x="2240" y="550" width="116.7" height="102.8" as="geometry" />
        </mxCell>
        <mxCell id="1a8abee3a6cfdf20-13" value="" style="verticalLabelPosition=bottom;html=1;verticalAlign=top;strokeWidth=1;dashed=0;shape=mxgraph.aws3d.simpleDb2;fillColor=#ECECEC;strokeColor=#5E5E5E;aspect=fixed;rounded=1;shadow=0;comic=0;fontSize=12" parent="1" vertex="1">
          <mxGeometry x="1093" y="46.39999999999998" width="181.5" height="192.6" as="geometry" />
        </mxCell>
        <mxCell id="1a8abee3a6cfdf20-14" value="" style="verticalLabelPosition=bottom;html=1;verticalAlign=top;strokeWidth=1;dashed=0;shape=mxgraph.aws3d.snapshot;fillColor=#4286c5;strokeColor=#57A2D8;aspect=fixed;rounded=1;shadow=0;comic=0;fontSize=12" parent="1" vertex="1">
          <mxGeometry x="1780" y="1880" width="92" height="60" as="geometry" />
        </mxCell>
        <mxCell id="1a8abee3a6cfdf20-19" value="" style="verticalLabelPosition=bottom;html=1;verticalAlign=top;strokeWidth=1;dashed=0;shape=mxgraph.aws3d.elasticBeanstalk;fillColor=#ECECEC;strokeColor=#5E5E5E;aspect=fixed;rounded=1;shadow=0;comic=0;fontSize=12" parent="1" vertex="1">
          <mxGeometry x="1093" y="2002.4" width="182" height="140" as="geometry" />
        </mxCell>
        <mxCell id="1a8abee3a6cfdf20-22" value="" style="verticalLabelPosition=bottom;html=1;verticalAlign=top;strokeWidth=1;dashed=0;shape=mxgraph.aws3d.dataCenter;fillColor=#ffffff;strokeColor=#5E5E5E;aspect=fixed;rounded=1;shadow=0;comic=0;fontSize=12" parent="1" vertex="1">
          <mxGeometry x="1710" y="109.60000000000002" width="123" height="142" as="geometry" />
        </mxCell>
        <mxCell id="1a8abee3a6cfdf20-23" value="" style="verticalLabelPosition=bottom;html=1;verticalAlign=top;strokeWidth=1;dashed=0;shape=mxgraph.aws3d.application2;fillColor=#86E83A;strokeColor=#B0F373;aspect=fixed;rounded=1;shadow=0;comic=0;fontSize=12" parent="1" vertex="1">
          <mxGeometry x="1740.5" y="114.60000000000002" width="62" height="53" as="geometry" />
        </mxCell>
        <mxCell id="1a8abee3a6cfdf20-25" value="" style="verticalLabelPosition=bottom;html=1;verticalAlign=top;strokeWidth=1;dashed=0;shape=mxgraph.aws3d.arrowhead;aspect=fixed;rounded=1;shadow=0;comic=0;fillColor=none;fontFamily=Verdana;fontSize=12;fontColor=#000000;flipV=1;" parent="1" vertex="1">
          <mxGeometry x="341" y="1291" width="39" height="23" as="geometry" />
        </mxCell>
        <mxCell id="1a8abee3a6cfdf20-27" value="" style="verticalLabelPosition=bottom;html=1;verticalAlign=top;strokeWidth=1;dashed=0;shape=mxgraph.aws3d.arrowhead;aspect=fixed;rounded=1;shadow=0;comic=0;fillColor=none;fontFamily=Verdana;fontSize=12;fontColor=#000000;flipV=1;" parent="1" vertex="1">
          <mxGeometry x="401" y="1328" width="39" height="23" as="geometry" />
        </mxCell>
        <mxCell id="1a8abee3a6cfdf20-1" value="" style="verticalLabelPosition=bottom;html=1;verticalAlign=top;strokeWidth=1;dashed=0;shape=mxgraph.aws3d.secureConnection;fillColor=#000000;strokeColor=#ffffff;aspect=fixed;rounded=1;shadow=0;comic=0;fontSize=12" parent="1" vertex="1">
          <mxGeometry x="203" y="1068" width="56.99999999999999" height="34" as="geometry" />
        </mxCell>
        <mxCell id="1a8abee3a6cfdf20-29" value="" style="verticalLabelPosition=bottom;html=1;verticalAlign=top;strokeWidth=1;dashed=0;shape=mxgraph.aws3d.dashedEdgeDouble;fillColor=#000000;aspect=fixed;rounded=1;shadow=0;comic=0;fontFamily=Verdana;fontSize=12;flipV=1;" parent="1" vertex="1">
          <mxGeometry x="90" y="618" width="87" height="50" as="geometry" />
        </mxCell>
        <mxCell id="1a8abee3a6cfdf20-30" value="" style="verticalLabelPosition=bottom;html=1;verticalAlign=top;strokeWidth=1;dashed=0;shape=mxgraph.aws3d.dashedEdgeDouble;fillColor=#000000;aspect=fixed;rounded=1;shadow=0;comic=0;fontFamily=Verdana;fontSize=12;flipV=1;" parent="1" vertex="1">
          <mxGeometry x="395" y="1100" width="87" height="50" as="geometry" />
        </mxCell>
        <mxCell id="1a8abee3a6cfdf20-33" value="" style="verticalLabelPosition=bottom;html=1;verticalAlign=top;strokeWidth=1;dashed=0;shape=mxgraph.aws3d.arrowSE;fillColor=#000000;aspect=fixed;rounded=1;shadow=0;comic=0;fontFamily=Verdana;fontSize=12;" parent="1" vertex="1">
          <mxGeometry x="417" y="788" width="88" height="50" as="geometry" />
        </mxCell>
        <mxCell id="1a8abee3a6cfdf20-34" value="" style="verticalLabelPosition=bottom;html=1;verticalAlign=top;strokeWidth=1;dashed=0;shape=mxgraph.aws3d.arrowSW;fillColor=#000000;aspect=fixed;rounded=1;shadow=0;comic=0;fontFamily=Verdana;fontSize=12;" parent="1" vertex="1">
          <mxGeometry x="432" y="478" width="362" height="207" as="geometry" />
        </mxCell>
        <mxCell id="1a8abee3a6cfdf20-35" value="" style="verticalLabelPosition=bottom;html=1;verticalAlign=top;strokeWidth=1;dashed=0;shape=mxgraph.aws3d.arrowSE;fillColor=#000000;aspect=fixed;rounded=1;shadow=0;comic=0;fontFamily=Verdana;fontSize=12" parent="1" vertex="1">
          <mxGeometry x="940" y="384.9" width="57" height="33" as="geometry" />
        </mxCell>
        <mxCell id="1a8abee3a6cfdf20-36" value="" style="verticalLabelPosition=bottom;html=1;verticalAlign=top;strokeWidth=1;dashed=0;shape=mxgraph.aws3d.arrowSW;fillColor=#000000;aspect=fixed;rounded=1;shadow=0;comic=0;fontFamily=Verdana;fontSize=12" parent="1" vertex="1">
          <mxGeometry x="1716.67" y="945" width="195" height="110" as="geometry" />
        </mxCell>
        <mxCell id="1a8abee3a6cfdf20-37" value="" style="verticalLabelPosition=bottom;html=1;verticalAlign=top;strokeWidth=1;dashed=0;shape=mxgraph.aws3d.arrowSW;fillColor=#000000;aspect=fixed;rounded=1;shadow=0;comic=0;fontFamily=Verdana;fontSize=12" parent="1" vertex="1">
          <mxGeometry x="1595.2" y="1742" width="119" height="68" as="geometry" />
        </mxCell>
        <mxCell id="1a8abee3a6cfdf20-39" value="" style="verticalLabelPosition=bottom;html=1;verticalAlign=top;strokeWidth=1;dashed=0;shape=mxgraph.aws3d.arrowSE;fillColor=#000000;aspect=fixed;rounded=1;shadow=0;comic=0;fontFamily=Verdana;fontSize=12" parent="1" vertex="1">
          <mxGeometry x="1300" y="2200" width="102" height="58" as="geometry" />
        </mxCell>
        <mxCell id="d5ac148becb70bc-1" value="" style="verticalLabelPosition=bottom;html=1;verticalAlign=top;strokeWidth=1;dashed=0;shape=mxgraph.aws3d.arrowSE;fillColor=#000000;aspect=fixed;rounded=1;shadow=0;comic=0;fontFamily=Verdana;fontSize=12" parent="1" vertex="1">
          <mxGeometry x="1093" y="2230" width="143" height="81" as="geometry" />
        </mxCell>
        <mxCell id="d5ac148becb70bc-2" value="" style="verticalLabelPosition=bottom;html=1;verticalAlign=top;strokeWidth=1;dashed=0;shape=mxgraph.aws3d.snapshot;fillColor=#4286c5;strokeColor=#57A2D8;aspect=fixed;rounded=1;shadow=0;comic=0;fontFamily=Verdana;fontSize=12" parent="1" vertex="1">
          <mxGeometry x="1940" y="1810" width="92" height="60" as="geometry" />
        </mxCell>
        <mxCell id="d5ac148becb70bc-3" value="" style="verticalLabelPosition=bottom;html=1;verticalAlign=top;strokeWidth=1;dashed=0;shape=mxgraph.aws3d.rdsMaster;fillColor=#ECECEC;strokeColor=#5E5E5E;aspect=fixed;rounded=1;shadow=0;comic=0;fontFamily=Verdana;fontSize=12" parent="1" vertex="1">
          <mxGeometry x="1602" y="1906" width="123" height="133" as="geometry" />
        </mxCell>
        <mxCell id="d5ac148becb70bc-4" value="" style="verticalLabelPosition=bottom;html=1;verticalAlign=top;strokeWidth=1;dashed=0;shape=mxgraph.aws3d.arrowSW;fillColor=#000000;aspect=fixed;rounded=1;shadow=0;comic=0;fontFamily=Verdana;fontSize=12" parent="1" vertex="1">
          <mxGeometry x="2268.5" y="2222" width="171" height="97" as="geometry" />
        </mxCell>
        <mxCell id="d5ac148becb70bc-5" value="" style="verticalLabelPosition=bottom;html=1;verticalAlign=top;strokeWidth=1;dashed=0;shape=mxgraph.aws3d.arrowSE;fillColor=#000000;aspect=fixed;rounded=1;shadow=0;comic=0;fontFamily=Verdana;fontSize=12" parent="1" vertex="1">
          <mxGeometry x="1738" y="1224" width="134" height="76" as="geometry" />
        </mxCell>
        <mxCell id="d5ac148becb70bc-6" value="" style="verticalLabelPosition=bottom;html=1;verticalAlign=top;strokeWidth=1;dashed=0;shape=mxgraph.aws3d.arrowSW;fillColor=#000000;aspect=fixed;rounded=1;shadow=0;comic=0;fontFamily=Verdana;fontSize=12" parent="1" vertex="1">
          <mxGeometry x="2240" y="1650" width="246" height="140" as="geometry" />
        </mxCell>
        <mxCell id="d5ac148becb70bc-8" value="" style="verticalLabelPosition=bottom;html=1;verticalAlign=top;strokeWidth=1;dashed=0;shape=mxgraph.aws3d.dashedArrowlessEdge;aspect=fixed;rounded=1;shadow=0;comic=0;fontFamily=Verdana;fontSize=12;rotation=0;direction=east;" parent="1" vertex="1">
          <mxGeometry x="840" y="564" width="1432" height="816" as="geometry" />
        </mxCell>
        <mxCell id="d5ac148becb70bc-9" value="" style="verticalLabelPosition=bottom;html=1;verticalAlign=top;strokeWidth=1;dashed=0;shape=mxgraph.aws3d.dashedArrowlessEdge;aspect=fixed;rounded=1;shadow=0;comic=0;fontFamily=Verdana;fontSize=12" parent="1" vertex="1">
          <mxGeometry x="592" y="705" width="1432" height="816" as="geometry" />
        </mxCell>
        <mxCell id="d5ac148becb70bc-10" value="" style="verticalLabelPosition=bottom;html=1;verticalAlign=top;strokeWidth=1;dashed=0;shape=mxgraph.aws3d.dashedArrowlessEdge;fillColor=#000000;aspect=fixed;rounded=1;shadow=0;comic=0;fontFamily=Verdana;fontSize=12;fontColor=#000000;flipV=1;" parent="1" vertex="1">
          <mxGeometry x="592" y="564" width="248" height="141" as="geometry" />
        </mxCell>
        <mxCell id="d5ac148becb70bc-12" value="" style="verticalLabelPosition=bottom;html=1;verticalAlign=top;strokeWidth=1;dashed=0;shape=mxgraph.aws3d.dashedArrowlessEdge;aspect=fixed;rounded=1;shadow=0;comic=0;fontFamily=Verdana;fontSize=12;flipV=1;connectable=1;allowArrows=1;" parent="1" vertex="1">
          <mxGeometry x="2023" y="1378" width="249" height="142" as="geometry" />
        </mxCell>
        <mxCell id="1a8abee3a6cfdf20-2" value="" style="verticalLabelPosition=bottom;html=1;verticalAlign=top;strokeWidth=1;dashed=0;shape=mxgraph.aws3d.secureConnection;fillColor=#000000;strokeColor=#ffffff;aspect=fixed;rounded=1;shadow=0;comic=0;fontSize=12" parent="1" vertex="1">
          <mxGeometry x="550" y="260" width="56.99999999999999" height="34" as="geometry" />
        </mxCell>
        <mxCell id="d5ac148becb70bc-14" value="" style="edgeStyle=isometricEdgeStyle;endArrow=none;html=1;labelBackgroundColor=none;strokeWidth=5;fontFamily=Verdana;fontSize=12" parent="1" edge="1">
          <mxGeometry width="50" height="100" relative="1" as="geometry">
            <mxPoint x="43" y="2262.02" as="sourcePoint" />
            <mxPoint x="1183" y="2562.02" as="targetPoint" />
            <Array as="points">
              <mxPoint x="483" y="2452.02" />
            </Array>
          </mxGeometry>
        </mxCell>
        <mxCell id="d5ac148becb70bc-15" value="" style="verticalLabelPosition=bottom;html=1;verticalAlign=top;strokeWidth=1;dashed=0;shape=mxgraph.aws3d.arrowhead;aspect=fixed;rounded=1;shadow=0;comic=0;fillColor=none;fontFamily=Verdana;fontSize=12;fontColor=#000000;flipV=1;" parent="1" vertex="1">
          <mxGeometry x="443" y="1356" width="39" height="23" as="geometry" />
        </mxCell>
        <mxCell id="d5ac148becb70bc-16" value="" style="verticalLabelPosition=bottom;html=1;verticalAlign=top;strokeWidth=1;dashed=0;shape=mxgraph.aws3d.secureConnection;fillColor=#000000;strokeColor=#ffffff;aspect=fixed;rounded=1;shadow=0;comic=0;fontSize=12" parent="1" vertex="1">
          <mxGeometry x="1479" y="2230" width="56.99999999999999" height="34" as="geometry" />
        </mxCell>
        <mxCell id="dQPvW1LIH_hYdUgcrzJX-1" value="" style="shape=image;verticalLabelPosition=bottom;labelBackgroundColor=#ffffff;verticalAlign=top;aspect=fixed;imageAspect=0;image=data:image/svg+xml,PHN2ZyB4bWxuczpjYz0iaHR0cDovL2NyZWF0aXZlY29tbW9ucy5vcmcvbnMjIiB4bWxuczpkYz0iaHR0cDovL3B1cmwub3JnL2RjL2VsZW1lbnRzLzEuMS8iIHhtbG5zOmlua3NjYXBlPSJodHRwOi8vd3d3Lmlua3NjYXBlLm9yZy9uYW1lc3BhY2VzL2lua3NjYXBlIiB4bWxuczpyZGY9Imh0dHA6Ly93d3cudzMub3JnLzE5OTkvMDIvMjItcmRmLXN5bnRheC1ucyMiIHhtbG5zOnNvZGlwb2RpPSJodHRwOi8vc29kaXBvZGkuc291cmNlZm9yZ2UubmV0L0RURC9zb2RpcG9kaS0wLmR0ZCIgeG1sbnM6c3ZnPSJodHRwOi8vd3d3LnczLm9yZy8yMDAwL3N2ZyIgeG1sbnM9Imh0dHA6Ly93d3cudzMub3JnLzIwMDAvc3ZnIiB4bWxuczp4bGluaz0iaHR0cDovL3d3dy53My5vcmcvMTk5OS94bGluayIgdmVyc2lvbj0iMS4xIiBpZD0ic3ZnMTEyNzc0IiBpbmtzY2FwZTp2ZXJzaW9uPSIwLjkyLjMgKDI0MDU1NDYsIDIwMTgtMDMtMTEpIiBzb2RpcG9kaTpkb2NuYW1lPSJ1c2VyX2FjY2Vzc19wZXJtaXNzaW9ucy5zdmciIHg9IjBweCIgeT0iMHB4IiB2aWV3Qm94PSIwIDAgMTI4LjY1IDg5LjMiIHN0eWxlPSJlbmFibGUtYmFja2dyb3VuZDpuZXcgMCAwIDEyOC42NSA4OS4zOyIgeG1sOnNwYWNlPSJwcmVzZXJ2ZSI+JiN4YTs8c29kaXBvZGk6bmFtZWR2aWV3IGJvcmRlcmNvbG9yPSIjNjY2NjY2IiBib3JkZXJvcGFjaXR5PSIxIiBmaXQtbWFyZ2luLWJvdHRvbT0iMCIgZml0LW1hcmdpbi1sZWZ0PSIwIiBmaXQtbWFyZ2luLXJpZ2h0PSIwIiBmaXQtbWFyZ2luLXRvcD0iMCIgZ3JpZHRvbGVyYW5jZT0iMTAiIGd1aWRldG9sZXJhbmNlPSIxMCIgaWQ9Im5hbWVkdmlldzExMjc3NiIgaW5rc2NhcGU6Y3VycmVudC1sYXllcj0ic3ZnMTEyNzc0IiBpbmtzY2FwZTpjeD0iODUuNjczNzYxIiBpbmtzY2FwZTpjeT0iNTkuNDU4NzE2IiBpbmtzY2FwZTpwYWdlb3BhY2l0eT0iMCIgaW5rc2NhcGU6cGFnZXNoYWRvdz0iMiIgaW5rc2NhcGU6d2luZG93LWhlaWdodD0iMTAxNyIgaW5rc2NhcGU6d2luZG93LW1heGltaXplZD0iMSIgaW5rc2NhcGU6d2luZG93LXdpZHRoPSIxOTIwIiBpbmtzY2FwZTp3aW5kb3cteD0iLTgiIGlua3NjYXBlOndpbmRvdy15PSItOCIgaW5rc2NhcGU6em9vbT0iNy4yOTUzODYyIiBvYmplY3R0b2xlcmFuY2U9IjEwIiBwYWdlY29sb3I9IiNmZmZmZmYiIHNob3dncmlkPSJmYWxzZSI+JiN4YTsJPC9zb2RpcG9kaTpuYW1lZHZpZXc+JiN4YTs8ZyBpZD0iZzExMjc3MiIgdHJhbnNmb3JtPSJ0cmFuc2xhdGUoMCwwLjEzNzQxNzQpIj4mI3hhOwk8dGl0bGUgaWQ9InRpdGxlMTEyNzI3Ij5QYWdlLTE8L3RpdGxlPiYjeGE7CTxnIGlkPSJncm91cDQ5MzgtMSI+JiN4YTsJCTx0aXRsZSBpZD0idGl0bGUxMTI3MjkiPlVzZXIgQWNjZXNzIFBlcm1pc3Npb25zPC90aXRsZT4mI3hhOwkJPGcgaWQ9InNoYXBlNDkzOS0yIiB0cmFuc2Zvcm09InRyYW5zbGF0ZSgwLC03LjYzNzc5KSI+JiN4YTsJCQk8dGl0bGUgaWQ9InRpdGxlMTEyNzMxIj5TaGVldC40OTM5PC90aXRsZT4mI3hhOwkJCTxwYXRoIGlkPSJwYXRoMTEyNzMzIiBpbmtzY2FwZTpjb25uZWN0b3ItY3VydmF0dXJlPSIwIiBzdHlsZT0iZmlsbDojREREREREOyIgZD0iTTEuNDMsMjAuMjdoMTAyLjM0YzAuNzgsMCwxLjQzLDAuNjQsMS40MywxLjQ1ICAgICB2NjUuOTZjMCwwLjgxLTAuNjUsMS40NS0xLjQzLDEuNDVIMS40M0MwLjY1LDg5LjEzLDAsODguNDksMCw4Ny42OFYyMS43MkMwLDIwLjkxLDAuNjUsMjAuMjcsMS40MywyMC4yN3oiLz4mI3hhOwkJPC9nPiYjeGE7CQk8ZyBpZD0ic2hhcGU0OTQwLTQiIHRyYW5zZm9ybT0idHJhbnNsYXRlKDMxLjcyMjMsLTYyLjczODcpIj4mI3hhOwkJCTx0aXRsZSBpZD0idGl0bGUxMTI3MzYiPlNoZWV0LjQ5NDA8L3RpdGxlPiYjeGE7CQkJPHBhdGggaWQ9InBhdGgxMTI3MzgiIGlua3NjYXBlOmNvbm5lY3Rvci1jdXJ2YXR1cmU9IjAiIHN0eWxlPSJmaWxsOiNGRkZGRkY7IiBkPSJNMC44NSw4Mi43OWgzNy45M2MwLjQ4LDAsMC44NSwwLjM3LDAuODUsMC44NSAgICAgdjQuNjRjMCwwLjQ4LTAuMzcsMC44NS0wLjg1LDAuODVIMC44NUMwLjM3LDg5LjEzLDAsODguNzYsMCw4OC4yOHYtNC42NEMwLDgzLjE2LDAuMzcsODIuNzksMC44NSw4Mi43OXoiLz4mI3hhOwkJPC9nPiYjeGE7CQk8ZyBpZD0ic2hhcGU0OTQxLTYiIHRyYW5zZm9ybT0idHJhbnNsYXRlKDM3LjE0NzMsLTY1LjM2NykiPiYjeGE7CQkJPHRpdGxlIGlkPSJ0aXRsZTExMjc0MSI+U2hlZXQuNDk0MTwvdGl0bGU+JiN4YTsJCQk8cGF0aCBpZD0icGF0aDExMjc0MyIgaW5rc2NhcGU6Y29ubmVjdG9yLWN1cnZhdHVyZT0iMCIgc3R5bGU9ImZpbGw6I0JCQkJCQjsiIGQ9Ik0zLjM4LDcxLjk2YzAuMDktMC40NywwLjU1LTAuODYsMS4wNC0wLjg2ICAgICBoMjIuMDZjMC40OSwwLDAuOTUsMC4zOSwxLjA0LDAuODZsMy4zNCwxNi4zMmMwLjA5LDAuNDYtMC4yMSwwLjg1LTAuNjksMC44NUgwLjczYy0wLjQ4LDAtMC44MS0wLjM5LTAuNzEtMC44NUwzLjM4LDcxLjk2eiIvPiYjeGE7CQk8L2c+JiN4YTsJCTxnIGlkPSJzaGFwZTQ5NDItOCIgdHJhbnNmb3JtPSJ0cmFuc2xhdGUoOC43MTQ0LC0xNy43MTI3KSI+JiN4YTsJCQk8dGl0bGUgaWQ9InRpdGxlMTEyNzQ2Ij5TaGVldC40OTQyPC90aXRsZT4mI3hhOwkJCTxwYXRoIGlkPSJwYXRoMTEyNzQ4IiBpbmtzY2FwZTpjb25uZWN0b3ItY3VydmF0dXJlPSIwIiBzdHlsZT0iZmlsbDojMTA3RkM5OyIgZD0iTTAsODkuMTN2LTMuNDhjMCwwLDAuMjMtMi4xNCwyLjgxLTIuODEgICAgIGMwLDAsNC4xMy0xLjUyLDcuMzgtMi45M2MxLjY4LTAuNzQsMi4wNS0xLjE4LDMuNzMtMS45MWMwLDAsMC4xOS0wLjg4LDAuMTItMS40MWgxLjMxYzAsMCwwLjMzLDAuMTgsMC0xLjg3ICAgICBjMCwwLTEuNjEtMC40MS0xLjY4LTMuNjljMCwwLTEuMiwwLjQyLTEuMjktMS41NmMtMC4wNS0xLjM0LTEuMDgtMi40OSwwLjQxLTMuNDZsLTAuNzYtMi4wNWMwLDAtMS41Mi04LjI2LDIuODQtNy4wNCAgICAgYy0xLjgyLTIuMjEsMTAuNC00LjQsMTEuMiwyLjU2YzAsMCwwLjU4LDMuNzgsMCw2LjM3YzAsMCwxLjc4LTAuMjEsMC42LDMuMjJjMCwwLTAuNjcsMi40Ny0xLjY4LDEuOTJjMCwwLDAuMTgsMy4xMy0xLjQxLDMuNjYgICAgIGMwLDAsMC4xMiwxLjY2LDAuMTIsMS43OGwxLjUsMC4yM2MwLDAtMC4yMywxLjM2LDAuMDQsMS41MmMwLDAsMS44LDEuMjIsMy45MiwxLjc4YzQuMTMsMS4wNiw5LjAyLDIuODgsOS4wMiw0LjQ3ICAgICBjMCwwLDAuNDEsMi4xMiwwLjQxLDQuN0wwLDg5LjEzeiIvPiYjeGE7CQk8L2c+JiN4YTsJCTxnIGlkPSJzaGFwZTQ5NDMtMTAiIHRyYW5zZm9ybT0idHJhbnNsYXRlKDUzLjM5MywtMzAuNDE1OSkiPiYjeGE7CQkJPHRpdGxlIGlkPSJ0aXRsZTExMjc1MSI+U2hlZXQuNDk0MzwvdGl0bGU+JiN4YTsJCQk8cGF0aCBpZD0icGF0aDExMjc1MyIgaW5rc2NhcGU6Y29ubmVjdG9yLWN1cnZhdHVyZT0iMCIgc3R5bGU9ImZpbGw6I0JCQkJCQjsiIGQ9Ik0wLjg1LDgyLjI0aDQwLjc2YzAuNDksMCwwLjg2LDAuMzksMC44NiwwLjg3ICAgICB2NS4xNWMwLDAuNDgtMC4zNywwLjg3LTAuODYsMC44N0gwLjg1QzAuMzksODkuMTMsMCw4OC43NCwwLDg4LjI2di01LjE1QzAsODIuNjMsMC4zOSw4Mi4yNCwwLjg1LDgyLjI0eiIvPiYjeGE7CQk8L2c+JiN4YTsJCTxnIGlkPSJzaGFwZTQ5NDQtMTIiIHRyYW5zZm9ybT0idHJhbnNsYXRlKDUzLjM5MywtNDMuMTQyMSkiPiYjeGE7CQkJPHRpdGxlIGlkPSJ0aXRsZTExMjc1NiI+U2hlZXQuNDk0NDwvdGl0bGU+JiN4YTsJCQk8cGF0aCBpZD0icGF0aDExMjc1OCIgaW5rc2NhcGU6Y29ubmVjdG9yLWN1cnZhdHVyZT0iMCIgc3R5bGU9ImZpbGw6I0JCQkJCQjsiIGQ9Ik0wLjg1LDgyLjI2aDQwLjc2YzAuNDksMCwwLjg2LDAuMzcsMC44NiwwLjg1ICAgICB2NS4xN2MwLDAuNDgtMC4zNywwLjg1LTAuODYsMC44NUgwLjg1QzAuMzksODkuMTMsMCw4OC43NiwwLDg4LjI4di01LjE3QzAsODIuNjMsMC4zOSw4Mi4yNiwwLjg1LDgyLjI2eiIvPiYjeGE7CQk8L2c+JiN4YTsJCTxnIGlkPSJzaGFwZTQ5NDUtMTQiIHRyYW5zZm9ybT0idHJhbnNsYXRlKDUzLjM5MywtMTguMjQzKSI+JiN4YTsJCQk8dGl0bGUgaWQ9InRpdGxlMTEyNzYxIj5TaGVldC40OTQ1PC90aXRsZT4mI3hhOwkJCTxwYXRoIGlkPSJwYXRoMTEyNzYzIiBpbmtzY2FwZTpjb25uZWN0b3ItY3VydmF0dXJlPSIwIiBzdHlsZT0iZmlsbDojQkJCQkJCOyIgZD0iTTAuODUsODIuMjRoNDAuNzZjMC40OSwwLDAuODYsMC4zOSwwLjg2LDAuODcgICAgIHY1LjE3YzAsMC40Ni0wLjM3LDAuODUtMC44NiwwLjg1SDAuODVDMC4zOSw4OS4xMywwLDg4Ljc0LDAsODguMjh2LTUuMTdDMCw4Mi42MywwLjM5LDgyLjI0LDAuODUsODIuMjR6Ii8+JiN4YTsJCTwvZz4mI3hhOwkJPGcgaWQ9InNoYXBlNDk0Ni0xNiIgdHJhbnNmb3JtPSJ0cmFuc2xhdGUoODEuMDg2NikiPiYjeGE7CQkJPHRpdGxlIGlkPSJ0aXRsZTExMjc2NiI+U2hlZXQuNDk0NjwvdGl0bGU+JiN4YTsJCQk8cGF0aCBpZD0icGF0aDExMjc2OCIgaW5rc2NhcGU6Y29ubmVjdG9yLWN1cnZhdHVyZT0iMCIgc3R5bGU9ImZpbGw6IzEwN0ZDOTsiIGQ9Ik0xMS4yMiw0My44OUwxMS4yLDc4LjRsOS40NSw5LjQ4bDAsMCAgICAgYzEuNzMsMS43MSw0LjYxLDEuNzEsNi4zMi0wLjAybDUuMjUtNS4yNmwtNC4xOS00LjJsNC4yMi00LjIxbC00LjIyLTQuMmw0LjIyLTQuMjJsLTQuMjItNC4ybDQuMjItNC4xOVY0NS44N2wwLDAgICAgIGMzLjA0LTEuMTUsNS45LTIuOTUsOC4zNy01LjM5YzkuMjYtOS4yNyw5LjI2LTI0LjM5LDAtMzMuNjZDMzEuMy0yLjQ5LDE2LjI1LTIuNDMsNi45OCw2Ljg0Uy0yLjM2LDMxLjE3LDYuOTYsNDAuNSAgICAgQzguMjcsNDEuODIsOS43LDQyLjk1LDExLjIyLDQzLjg5eiBNMzAuMjQsMjQuMThjLTMuNTUsMy41NS05LjIyLDMuNTUtMTIuNzUsMGMtMy40My0zLjQxLTMuNDEtOS4wNiwwLjE0LTEyLjYxICAgICBjMy40MS0zLjQxLDkuMDYtMy40MSwxMi40NywwQzMzLjY1LDE1LjEyLDMzLjY1LDIwLjc3LDMwLjI0LDI0LjE4eiIvPiYjeGE7CQk8L2c+JiN4YTsJPC9nPiYjeGE7PC9nPiYjeGE7PC9zdmc+;" vertex="1" parent="1">
          <mxGeometry x="1822.6" y="960" width="67.4" height="46.5" as="geometry" />
        </mxCell>
        <mxCell id="dQPvW1LIH_hYdUgcrzJX-13" value="" style="verticalLabelPosition=bottom;html=1;verticalAlign=top;strokeWidth=1;dashed=0;shape=mxgraph.aws3d.arrowSE;fillColor=#000000;aspect=fixed;rounded=1;shadow=0;comic=0;fontFamily=Verdana;fontSize=12" vertex="1" parent="1">
          <mxGeometry x="2116" y="1840" width="134" height="76" as="geometry" />
        </mxCell>
        <mxCell id="dQPvW1LIH_hYdUgcrzJX-15" value="" style="verticalLabelPosition=bottom;html=1;verticalAlign=top;strokeWidth=1;dashed=0;shape=mxgraph.aws3d.arrowSE;fillColor=#000000;aspect=fixed;rounded=1;shadow=0;comic=0;fontFamily=Verdana;fontSize=12;direction=west;" vertex="1" parent="1">
          <mxGeometry x="1110" y="869" width="134" height="76" as="geometry" />
        </mxCell>
        <mxCell id="dQPvW1LIH_hYdUgcrzJX-20" value="" style="verticalLabelPosition=bottom;html=1;verticalAlign=top;strokeWidth=1;dashed=0;shape=mxgraph.aws3d.arrowSE;fillColor=#000000;aspect=fixed;rounded=1;shadow=0;comic=0;fontFamily=Verdana;fontSize=12;direction=west;" vertex="1" parent="1">
          <mxGeometry x="863" y="724" width="134" height="76" as="geometry" />
        </mxCell>
        <mxCell id="dQPvW1LIH_hYdUgcrzJX-21" value="" style="verticalLabelPosition=bottom;html=1;verticalAlign=top;strokeWidth=1;dashed=0;shape=mxgraph.aws3d.arrowSE;fillColor=#000000;aspect=fixed;rounded=1;shadow=0;comic=0;fontFamily=Verdana;fontSize=12;direction=west;" vertex="1" parent="1">
          <mxGeometry x="1440.5" y="1055" width="134" height="76" as="geometry" />
        </mxCell>
        <mxCell id="dQPvW1LIH_hYdUgcrzJX-25" value="" style="dashed=0;outlineConnect=0;html=1;align=center;labelPosition=center;verticalLabelPosition=bottom;verticalAlign=top;shape=mxgraph.weblogos.github" vertex="1" parent="1">
          <mxGeometry x="189" y="1400" width="152" height="152" as="geometry" />
        </mxCell>
        <mxCell id="dQPvW1LIH_hYdUgcrzJX-26" value="" style="group" vertex="1" connectable="0" parent="1">
          <mxGeometry x="1150" y="1590" width="276" height="236" as="geometry" />
        </mxCell>
        <mxCell id="1a8abee3a6cfdf20-15" value="" style="verticalLabelPosition=bottom;html=1;verticalAlign=top;strokeWidth=1;dashed=0;shape=mxgraph.aws3d.application_server;fillColor=#ECECEC;strokeColor=#5E5E5E;aspect=fixed;rounded=1;shadow=0;comic=0;fontSize=12" parent="dQPvW1LIH_hYdUgcrzJX-26" vertex="1">
          <mxGeometry x="77" width="123" height="124" as="geometry" />
        </mxCell>
        <mxCell id="1a8abee3a6cfdf20-16" value="" style="verticalLabelPosition=bottom;html=1;verticalAlign=top;strokeWidth=1;dashed=0;shape=mxgraph.aws3d.application_server;fillColor=#ECECEC;strokeColor=#5E5E5E;aspect=fixed;rounded=1;shadow=0;comic=0;fontSize=12" parent="dQPvW1LIH_hYdUgcrzJX-26" vertex="1">
          <mxGeometry x="153" y="56" width="123" height="124" as="geometry" />
        </mxCell>
        <mxCell id="1a8abee3a6cfdf20-17" value="" style="verticalLabelPosition=bottom;html=1;verticalAlign=top;strokeWidth=1;dashed=0;shape=mxgraph.aws3d.application_server;fillColor=#ECECEC;strokeColor=#5E5E5E;aspect=fixed;rounded=1;shadow=0;comic=0;fontSize=12" parent="dQPvW1LIH_hYdUgcrzJX-26" vertex="1">
          <mxGeometry y="56" width="123" height="124" as="geometry" />
        </mxCell>
        <mxCell id="1a8abee3a6cfdf20-18" value="" style="verticalLabelPosition=bottom;html=1;verticalAlign=top;strokeWidth=1;dashed=0;shape=mxgraph.aws3d.application_server;fillColor=#ECECEC;strokeColor=#5E5E5E;aspect=fixed;rounded=1;shadow=0;comic=0;fontSize=12" parent="dQPvW1LIH_hYdUgcrzJX-26" vertex="1">
          <mxGeometry x="77" y="112" width="123" height="124" as="geometry" />
        </mxCell>
        <mxCell id="dQPvW1LIH_hYdUgcrzJX-30" value="" style="group" vertex="1" connectable="0" parent="1">
          <mxGeometry x="641" y="1190" width="523" height="436" as="geometry" />
        </mxCell>
        <mxCell id="1a8abee3a6cfdf20-4" value="" style="verticalLabelPosition=bottom;html=1;verticalAlign=top;strokeWidth=1;dashed=0;shape=mxgraph.aws3d.dynamoDb;fillColor=#ECECEC;strokeColor=#5E5E5E;aspect=fixed;rounded=1;shadow=0;comic=0;fontSize=12" parent="dQPvW1LIH_hYdUgcrzJX-30" vertex="1">
          <mxGeometry x="133" width="181.5" height="210" as="geometry" />
        </mxCell>
        <mxCell id="dQPvW1LIH_hYdUgcrzJX-27" value="" style="verticalLabelPosition=bottom;html=1;verticalAlign=top;strokeWidth=1;dashed=0;shape=mxgraph.aws3d.dynamoDb;fillColor=#ECECEC;strokeColor=#5E5E5E;aspect=fixed;rounded=1;shadow=0;comic=0;fontSize=12" vertex="1" parent="dQPvW1LIH_hYdUgcrzJX-30">
          <mxGeometry y="101" width="181.5" height="210" as="geometry" />
        </mxCell>
        <mxCell id="dQPvW1LIH_hYdUgcrzJX-28" value="" style="verticalLabelPosition=bottom;html=1;verticalAlign=top;strokeWidth=1;dashed=0;shape=mxgraph.aws3d.dynamoDb;fillColor=#ECECEC;strokeColor=#5E5E5E;aspect=fixed;rounded=1;shadow=0;comic=0;fontSize=12" vertex="1" parent="dQPvW1LIH_hYdUgcrzJX-30">
          <mxGeometry x="280" y="90" width="181.5" height="210" as="geometry" />
        </mxCell>
        <mxCell id="dQPvW1LIH_hYdUgcrzJX-29" value="" style="verticalLabelPosition=bottom;html=1;verticalAlign=top;strokeWidth=1;dashed=0;shape=mxgraph.aws3d.dynamoDb;fillColor=#ECECEC;strokeColor=#5E5E5E;aspect=fixed;rounded=1;shadow=0;comic=0;fontSize=12" vertex="1" parent="dQPvW1LIH_hYdUgcrzJX-30">
          <mxGeometry x="138.53999999999996" y="200" width="181.5" height="210" as="geometry" />
        </mxCell>
        <mxCell id="dQPvW1LIH_hYdUgcrzJX-31" value="" style="verticalLabelPosition=bottom;html=1;verticalAlign=top;strokeWidth=1;dashed=0;shape=mxgraph.aws3d.arrowSE;fillColor=#000000;aspect=fixed;rounded=1;shadow=0;comic=0;fontFamily=Verdana;fontSize=12" vertex="1" parent="dQPvW1LIH_hYdUgcrzJX-30">
          <mxGeometry x="389" y="360" width="134" height="76" as="geometry" />
        </mxCell>
        <mxCell id="dQPvW1LIH_hYdUgcrzJX-32" value="" style="group" vertex="1" connectable="0" parent="1">
          <mxGeometry x="1898" y="750" width="183.67000000000007" height="200" as="geometry" />
        </mxCell>
        <mxCell id="dQPvW1LIH_hYdUgcrzJX-10" value="" style="shape=image;verticalLabelPosition=bottom;labelBackgroundColor=#ffffff;verticalAlign=top;aspect=fixed;imageAspect=0;image=data:image/svg+xml,PHN2ZyB4bWxuczpjYz0iaHR0cDovL2NyZWF0aXZlY29tbW9ucy5vcmcvbnMjIiB4bWxuczpkYz0iaHR0cDovL3B1cmwub3JnL2RjL2VsZW1lbnRzLzEuMS8iIHhtbG5zOmlua3NjYXBlPSJodHRwOi8vd3d3Lmlua3NjYXBlLm9yZy9uYW1lc3BhY2VzL2lua3NjYXBlIiB4bWxuczpyZGY9Imh0dHA6Ly93d3cudzMub3JnLzE5OTkvMDIvMjItcmRmLXN5bnRheC1ucyMiIHhtbG5zOnNvZGlwb2RpPSJodHRwOi8vc29kaXBvZGkuc291cmNlZm9yZ2UubmV0L0RURC9zb2RpcG9kaS0wLmR0ZCIgeG1sbnM6c3ZnPSJodHRwOi8vd3d3LnczLm9yZy8yMDAwL3N2ZyIgeG1sbnM9Imh0dHA6Ly93d3cudzMub3JnLzIwMDAvc3ZnIiB4bWxuczp4bGluaz0iaHR0cDovL3d3dy53My5vcmcvMTk5OS94bGluayIgdmVyc2lvbj0iMS4xIiBpZD0ic3ZnMTUwMTk3IiBpbmtzY2FwZTp2ZXJzaW9uPSIwLjkyLjMgKDI0MDU1NDYsIDIwMTgtMDMtMTEpIiBzb2RpcG9kaTpkb2NuYW1lPSJkZXZlbG9wZXJfMS5zdmciIHg9IjBweCIgeT0iMHB4IiB2aWV3Qm94PSIwIDAgMTM0LjQgODkuNzkiIHN0eWxlPSJlbmFibGUtYmFja2dyb3VuZDpuZXcgMCAwIDEzNC40IDg5Ljc5OyIgeG1sOnNwYWNlPSJwcmVzZXJ2ZSI+JiN4YTs8c29kaXBvZGk6bmFtZWR2aWV3IGJvcmRlcmNvbG9yPSIjNjY2NjY2IiBib3JkZXJvcGFjaXR5PSIxIiBmaXQtbWFyZ2luLWJvdHRvbT0iMCIgZml0LW1hcmdpbi1sZWZ0PSIwIiBmaXQtbWFyZ2luLXJpZ2h0PSIwIiBmaXQtbWFyZ2luLXRvcD0iMCIgZ3JpZHRvbGVyYW5jZT0iMTAiIGd1aWRldG9sZXJhbmNlPSIxMCIgaWQ9Im5hbWVkdmlldzE1MDE5OSIgaW5rc2NhcGU6Y3VycmVudC1sYXllcj0ic3ZnMTUwMTk3IiBpbmtzY2FwZTpjeD0iODkuNTk4MzE2IiBpbmtzY2FwZTpjeT0iNTkuMzI5NTMzIiBpbmtzY2FwZTpwYWdlb3BhY2l0eT0iMCIgaW5rc2NhcGU6cGFnZXNoYWRvdz0iMiIgaW5rc2NhcGU6d2luZG93LWhlaWdodD0iMTAxNyIgaW5rc2NhcGU6d2luZG93LW1heGltaXplZD0iMSIgaW5rc2NhcGU6d2luZG93LXdpZHRoPSIxOTIwIiBpbmtzY2FwZTp3aW5kb3cteD0iLTgiIGlua3NjYXBlOndpbmRvdy15PSItOCIgaW5rc2NhcGU6em9vbT0iNy4wODk5NTA1IiBvYmplY3R0b2xlcmFuY2U9IjEwIiBwYWdlY29sb3I9IiNmZmZmZmYiIHNob3dncmlkPSJmYWxzZSI+JiN4YTsJPC9zb2RpcG9kaTpuYW1lZHZpZXc+JiN4YTs8ZyBpZD0iZzE1MDE5NSIgdHJhbnNmb3JtPSJ0cmFuc2xhdGUoLTEuMzYxNDY5MiwtMC41NjgzKSI+JiN4YTsJPHRpdGxlIGlkPSJ0aXRsZTE1MDAyMCI+UGFnZS0xPC90aXRsZT4mI3hhOwk8ZyBpZD0iZ3JvdXAzODctMSIgdHJhbnNmb3JtPSJ0cmFuc2xhdGUoMS4yNTg1NiwtMS4zNikiPiYjeGE7CQk8dGl0bGUgaWQ9InRpdGxlMTUwMDIyIj5EZXZlbG9wZXIgIzE8L3RpdGxlPiYjeGE7CQk8ZyBpZD0ic2hhcGUzODgtMiIgdHJhbnNmb3JtPSJtYXRyaXgoMSwwLDAsLTEsNjEuOTc3NywxMzEuNjkyKSI+JiN4YTsJCQk8dGl0bGUgaWQ9InRpdGxlMTUwMDI0Ij5wYXRoMjA2LTA8L3RpdGxlPiYjeGE7CQkJPHBhdGggaWQ9InBhdGgxNTAwMjYiIGlua3NjYXBlOmNvbm5lY3Rvci1jdXJ2YXR1cmU9IjAiIHN0eWxlPSJmaWxsOiMwMDcxQkM7IiBkPSJNNTIuMiw1MS4zOWMwLTIuNi0zLjIyLTQuNy03LjE5LTQuN0g3LjE5ICAgICBjLTMuOTcsMC03LjE5LDIuMS03LjE5LDQuN3YzNS42MmMwLDIuNiwzLjIyLDQuNyw3LjE5LDQuN2gzNy44MmMzLjk3LDAsNy4xOS0yLjEsNy4xOS00LjdMNTIuMiw1MS4zOXoiLz4mI3hhOwkJPC9nPiYjeGE7CQk8ZyBpZD0ic2hhcGUzODktNCIgdHJhbnNmb3JtPSJ0cmFuc2xhdGUoODMuMjY2MywtMzguMTQxMykiPiYjeGE7CQkJPHRpdGxlIGlkPSJ0aXRsZTE1MDAyOSI+cGF0aDIxMC00PC90aXRsZT4mI3hhOwkJCTxwYXRoIGlkPSJwYXRoMTUwMDMxIiBpbmtzY2FwZTpjb25uZWN0b3ItY3VydmF0dXJlPSIwIiBzdHlsZT0iZmlsbDojRTVFNUU1OyIgZD0iTTkuNjIsOTEuNzFIMHYtNS45Nmg5LjYyVjkxLjcxeiIvPiYjeGE7CQk8L2c+JiN4YTsJCTxnIGlkPSJzaGFwZTM5MC02IiB0cmFuc2Zvcm09Im1hdHJpeCgxLDAsMCwtMSw4Ny44Njg0LDE0MS42KSI+JiN4YTsJCQk8dGl0bGUgaWQ9InRpdGxlMTUwMDM0Ij5wYXRoMjE0LTk8L3RpdGxlPiYjeGE7CQkJPHBhdGggaWQ9InBhdGgxNTAwMzYiIGlua3NjYXBlOmNvbm5lY3Rvci1jdXJ2YXR1cmU9IjAiIHN0eWxlPSJmaWxsOm5vbmU7IiBkPSJNMCw5MS43MXYtMi42OFY5MS43MXoiLz4mI3hhOwkJCSYjeGE7CQkJCTxwYXRoIGlkPSJwYXRoMTUwMDM4IiBpbmtzY2FwZTpjb25uZWN0b3ItY3VydmF0dXJlPSIwIiBzdHlsZT0iZmlsbDpub25lO3N0cm9rZTojQjJCMkIyO3N0cm9rZS13aWR0aDoyLjA2MDY7c3Ryb2tlLW1pdGVybGltaXQ6MzsiIGQ9IiAgICAgTTAsOTEuNzF2LTIuNjgiLz4mI3hhOwkJPC9nPiYjeGE7CQk8ZyBpZD0ic2hhcGUzOTEtOSIgdHJhbnNmb3JtPSJtYXRyaXgoMSwwLDAsLTEsNDkuMTA0NywxMzcuMzIxKSI+JiN4YTsJCQk8dGl0bGUgaWQ9InRpdGxlMTUwMDQxIj5wYXRoMjE4LTI8L3RpdGxlPiYjeGE7CQkJPHBhdGggaWQ9InBhdGgxNTAwNDMiIGlua3NjYXBlOmNvbm5lY3Rvci1jdXJ2YXR1cmU9IjAiIHN0eWxlPSJmaWxsOiMzOUI1NEE7IiBkPSJNNzMuNCw2MS4wNGMtNC4xMiw4LjI1LTEyLjksMjYuNDgtMTQuNTcsMjcuODggICAgIGMtMS42NiwxLjQtMTAuNDQsMi43OS0xNS40NiwyLjc5YzAsMCwwLjk0LTYuMTgtNC42MS02LjE4Yy01LjU0LDAtNC42LDYuMTgtNC42LDYuMThjLTUuMDIsMC0xMy44LTEuMzktMTUuNDYtMi43OSAgICAgYy0xLjY3LTEuNC0xMC40NS0xOS42My0xNC41OC0yNy44OEMwLDUyLjc5LDUuMjYsNTIuMTksNS4yNiw1Mi4xOWgxNC40M3Y2LjkyYy0yLjEzLDAuNzMtNi43MiwxLjYtNi43MiwxLjYgICAgIGMxLjQsMy4zOSw5LjUyLDE4Ljg5LDkuNTIsMTguODlsMC44Ni0yNi42OGgxNS40MWgxNS40MWwwLjg3LDI2LjY4YzAsMCw4LjEyLTE1LjUsOS41MS0xOC44OWMwLDAtNC41OS0wLjg3LTYuNzItMS42di02LjkyICAgICBoMTQuNDRDNzIuMjcsNTIuMTksNzcuNTMsNTIuNzksNzMuNCw2MS4wNHoiLz4mI3hhOwkJPC9nPiYjeGE7CQk8ZyBpZD0ic2hhcGUzOTItMTEiIHRyYW5zZm9ybT0ibWF0cml4KDEsMCwwLC0xLDgzLjI2NjMsMTI4LjA5MykiPiYjeGE7CQkJPHRpdGxlIGlkPSJ0aXRsZTE1MDA0NiI+cGF0aDIyMi03PC90aXRsZT4mI3hhOwkJCTxwYXRoIGlkPSJwYXRoMTUwMDQ4IiBpbmtzY2FwZTpjb25uZWN0b3ItY3VydmF0dXJlPSIwIiBzdHlsZT0iZmlsbDojRkZEQUEyOyIgZD0iTTkuMiw4MC41NmMwLDAtMC42NS0yLjM1LTQuNi0yLjM1ICAgICBTMCw4MC41NiwwLDgwLjU2djExLjE1aDkuMlY4MC41NnoiLz4mI3hhOwkJPC9nPiYjeGE7CQk8ZyBpZD0ic2hhcGUzOTMtMTMiIHRyYW5zZm9ybT0ibWF0cml4KDEsMCwwLC0xLDc1LjExOTgsMTA1LjIwOCkiPiYjeGE7CQkJPHRpdGxlIGlkPSJ0aXRsZTE1MDA1MSI+cGF0aDIyNi05PC90aXRsZT4mI3hhOwkJCTxwYXRoIGlkPSJwYXRoMTUwMDUzIiBpbmtzY2FwZTpjb25uZWN0b3ItY3VydmF0dXJlPSIwIiBzdHlsZT0iZmlsbDojRkZEQUEyOyIgZD0iTTEyLjc1LDg4LjI4Yy04LjgxLDMuNDMtMTIuNzUsMC0xMi43NSwwICAgICBzMC42OC0xMi4xMSwxLTE0LjU2YzAuNzUtNS44Miw4LjMxLTkuNjksMTEuNzUtOS42OXMxMSwzLjg3LDExLjc1LDkuNjljMC4zMSwyLjQ1LDEsMTQuNTYsMSwxNC41NlMyMS41Niw5MS43MSwxMi43NSw4OC4yOHoiLz4mI3hhOwkJPC9nPiYjeGE7CQk8ZyBpZD0ic2hhcGUzOTQtMTUiIHRyYW5zZm9ybT0ibWF0cml4KDEsMCwwLC0xLDcwLjc0NTEsMTEzLjE5MSkiPiYjeGE7CQkJPHRpdGxlIGlkPSJ0aXRsZTE1MDA1NiI+cGF0aDIzMC01PC90aXRsZT4mI3hhOwkJCTxwYXRoIGlkPSJwYXRoMTUwMDU4IiBpbmtzY2FwZTpjb25uZWN0b3ItY3VydmF0dXJlPSIwIiBzdHlsZT0iZmlsbDojRjdEMTk3OyIgZD0iTTQuNzgsODkuNWMwLDAtMi4yNCwyLjIxLTMuMDMsMC44OSAgICAgQzAsODcuNDUsMy4wNiw4Ni4zNSwzLjI3LDgzLjU3YzAuMTQtMS45OCwxLjQ4LTEuOTcsMi4wMS0wLjk4QzUuODEsODMuNTcsNS41OSw4OC44Myw0Ljc4LDg5LjV6Ii8+JiN4YTsJCTwvZz4mI3hhOwkJPGcgaWQ9InNoYXBlMzk1LTE3IiB0cmFuc2Zvcm09Im1hdHJpeCgxLDAsMCwtMSw5OS4xNzk1LDExMy4xOTEpIj4mI3hhOwkJCTx0aXRsZSBpZD0idGl0bGUxNTAwNjEiPnBhdGgyMzQtMDwvdGl0bGU+JiN4YTsJCQk8cGF0aCBpZD0icGF0aDE1MDA2MyIgaW5rc2NhcGU6Y29ubmVjdG9yLWN1cnZhdHVyZT0iMCIgc3R5bGU9ImZpbGw6I0Y3RDE5NzsiIGQ9Ik0xLjAzLDg5LjVjMCwwLDIuMjQsMi4yMSwzLjAzLDAuODkgICAgIGMxLjc1LTIuOTQtMS4zMS00LjA0LTEuNTEtNi44MmMtMC4xNS0xLjk4LTEuNDktMS45Ny0yLjAyLTAuOThDMCw4My41NywwLjIyLDg4LjgzLDEuMDMsODkuNXoiLz4mI3hhOwkJPC9nPiYjeGE7CQk8ZyBpZD0ic2hhcGUzOTYtMTkiIHRyYW5zZm9ybT0ibWF0cml4KDEsMCwwLC0xLDc0Ljg3NzcsMTE5LjE4OCkiPiYjeGE7CQkJPHRpdGxlIGlkPSJ0aXRsZTE1MDA2NiI+cGF0aDIzOC04PC90aXRsZT4mI3hhOwkJCTxwYXRoIGlkPSJwYXRoMTUwMDY4IiBpbmtzY2FwZTpjb25uZWN0b3ItY3VydmF0dXJlPSIwIiBkPSJNMTIuOTksODIuMzhjLTIuNjQsMC00LDAuNzQtNCwxLjg0czEuNjEsMC40NSw0LDAuNDVzNCwwLjY1LDQtMC40NSAgICAgUzE1LjYzLDgyLjM4LDEyLjk5LDgyLjM4eiBNMjUuMjcsOTEuNzFoLTAuNDljMCwwLDAuNjMtNS4xNC0xMS43OS01LjE0UzEuMjEsOTEuNzEsMS4yMSw5MS43MWgtMC41YzAsMC0wLjcxLTUuODEsMS42NC05LjEzICAgICBjMy4yNS00LjU3LDEwLjY0LTQuNTcsMTAuNjQtNC41N3M3LjM5LDAsMTAuNjQsNC41N0MyNS45OCw4NS45LDI1LjI3LDkxLjcxLDI1LjI3LDkxLjcxeiIvPiYjeGE7CQk8L2c+JiN4YTsJCTxnIGlkPSJzaGFwZTM5Ny0yMSIgdHJhbnNmb3JtPSJtYXRyaXgoMSwwLDAsLTEsNjcuMzUxMSw5My42MzgzKSI+JiN4YTsJCQk8dGl0bGUgaWQ9InRpdGxlMTUwMDcxIj5wYXRoMjQyLTE8L3RpdGxlPiYjeGE7CQkJPHBhdGggaWQ9InBhdGgxNTAwNzMiIGlua3NjYXBlOmNvbm5lY3Rvci1jdXJ2YXR1cmU9IjAiIGQ9Ik0zMi44LDY2LjE3YzAsMC0wLjUyLDMuNjcsMS4yNSw0LjdjMCwwLDMuMTMsMTAuNDIsMC40MywxMy4xNiAgICAgYy0yLjY5LDIuNzQtNi41NCw0LjQ5LTkuNzgsNC44NHMtNi44NCwxLTguNTMsMi44NGMwLDAsMC44NS0yLjM0LDEuOTktMi40OWMwLDAtNy41My0xLjM1LTEyLjM3LDAuM2MwLDAsMS4zNS0zLjY0LDQuMzktNC4yOSAgICAgYzAsMC02LjM5LTEuNS0xMC4xOC0wLjI1YzAsMCwzLjAxLTYuMTYsNy43Ny04LjI3YzAsMCwzLjYxLDEuNjMsNS4zNSwwLjkzYzAsMCwwLjM1LTEtMS4xOS0xLjY0YzAsMCw0LjI0LDAuMTUsNi4wOCwxLjA0ICAgICBjMCwwLDAuMTUtMC42OSwwLjA1LTEuMzRjMCwwLDQuODQsMS4wNyw3LjM0LDIuMzVjMCwwLDIuMDktMS41NiwxLjQtMi4yYzAsMCw1LjA0LTAuMiw2LjEsMC42OSAgICAgQzMyLjksNzYuNTQsMzIuMzIsNjcuNTEsMzIuOCw2Ni4xN3oiLz4mI3hhOwkJPC9nPiYjeGE7CQk8ZyBpZD0ic2hhcGUzOTgtMjMiIHRyYW5zZm9ybT0ibWF0cml4KDEsMCwwLC0xLDcyLjM5MDksMTA2LjQxMykiPiYjeGE7CQkJPHRpdGxlIGlkPSJ0aXRsZTE1MDA3NiI+cGF0aDI0NjwvdGl0bGU+JiN4YTsJCQk8cGF0aCBpZD0icGF0aDE1MDA3OCIgaW5rc2NhcGU6Y29ubmVjdG9yLWN1cnZhdHVyZT0iMCIgZD0iTTMuMTksNzguOTRjMCwwLDAuMTksNC4xMS0yLjAzLDUuMDVjMCwwLTEuMTYsNi4zMy0wLjU2LDcuNzIgICAgIGwyLjQ5LTIuMDdjMCwwLDAuNjktOC45NSwwLjM1LTEwLjdMMy4xOSw3OC45NHoiLz4mI3hhOwkJPC9nPiYjeGE7CQk8ZyBpZD0ic2hhcGUzOTktMjUiIHRyYW5zZm9ybT0ibWF0cml4KDEsMCwwLC0xLDgxLjU0MjEsMTM3LjMyMSkiPiYjeGE7CQkJPHRpdGxlIGlkPSJ0aXRsZTE1MDA4MSI+cGF0aDI1MDwvdGl0bGU+JiN4YTsJCQk8cGF0aCBpZD0icGF0aDE1MDA4MyIgaW5rc2NhcGU6Y29ubmVjdG9yLWN1cnZhdHVyZT0iMCIgc3R5bGU9ImZpbGw6I0YxRjFGMTsiIGQ9Ik02LjMzLDg3LjQzYzAsMC0zLjg1LTAuMDEtNS4wNS0yLjY4ICAgICBjMCwwLTEuMjgsNC44OSwwLjQ0LDYuOTZDMS43Miw5MS43MSwyLjE5LDg3Ljc3LDYuMzMsODcuNDN6Ii8+JiN4YTsJCTwvZz4mI3hhOwkJPGcgaWQ9InNoYXBlNDAwLTI3IiB0cmFuc2Zvcm09Im1hdHJpeCgxLDAsMCwtMSw4Ny44Njg0LDEzNy4zMjEpIj4mI3hhOwkJCTx0aXRsZSBpZD0idGl0bGUxNTAwODYiPnBhdGgyNTQ8L3RpdGxlPiYjeGE7CQkJPHBhdGggaWQ9InBhdGgxNTAwODgiIGlua3NjYXBlOmNvbm5lY3Rvci1jdXJ2YXR1cmU9IjAiIHN0eWxlPSJmaWxsOiNGMUYxRjE7IiBkPSJNMCw4Ny40M2MwLDAsMy44NS0wLjAxLDUuMDUtMi42OCAgICAgYzAsMCwxLjI4LDQuODktMC40NSw2Ljk2QzQuNiw5MS43MSw0LjEzLDg3Ljc3LDAsODcuNDN6Ii8+JiN4YTsJCTwvZz4mI3hhOwkJPGcgaWQ9InNoYXBlNDAxLTI5IiB0cmFuc2Zvcm09Im1hdHJpeCgxLDAsMCwtMSw2Ni4wMDM5LDE1NC43OTEpIj4mI3hhOwkJCTx0aXRsZSBpZD0idGl0bGUxNTAwOTEiPnBhdGgyOTg8L3RpdGxlPiYjeGE7CQkJPHBhdGggaWQ9InBhdGgxNTAwOTMiIGlua3NjYXBlOmNvbm5lY3Rvci1jdXJ2YXR1cmU9IjAiIHN0eWxlPSJmaWxsOiNDQkNCQ0I7IiBkPSJNNDMuMzMsOTAuOTJjLTAuNCwwLjY2LTEuNzMsMC43OS0xLjczLDAuNzkgICAgIEgyMS44NkgyLjEzYzAsMC0xLjMzLTAuMTMtMS43My0wLjc5QzAsOTAuMjUsMC44LDY5LjA5LDAuOCw2OS4wOWgyMS4wNmgyMS4wN0M0Mi45Myw2OS4wOSw0My43Myw5MC4yNSw0My4zMyw5MC45MnoiLz4mI3hhOwkJPC9nPiYjeGE7CQk8ZyBpZD0ic2hhcGU0MDItMzEiIHRyYW5zZm9ybT0ibWF0cml4KDEsMCwwLC0xLDY2LjAwMzksMTU1LjE4MikiPiYjeGE7CQkJPHRpdGxlIGlkPSJ0aXRsZTE1MDA5NiI+cGF0aDMwMjwvdGl0bGU+JiN4YTsJCQk8cGF0aCBpZD0icGF0aDE1MDA5OCIgaW5rc2NhcGU6Y29ubmVjdG9yLWN1cnZhdHVyZT0iMCIgc3R5bGU9ImZpbGw6I0U1RTVFNTsiIGQ9Ik00My4zMyw5MC45MmMtMC40LDAuNjYtMS43MywwLjc5LTEuNzMsMC43OSAgICAgSDIxLjg2SDIuMTNjMCwwLTEuMzMtMC4xMy0xLjczLTAuNzlDMCw5MC4yNSwwLjgsNjkuMDksMC44LDY5LjA5aDIxLjA2aDIxLjA3QzQyLjkzLDY5LjA5LDQzLjczLDkwLjI1LDQzLjMzLDkwLjkyeiIvPiYjeGE7CQk8L2c+JiN4YTsJCTxnIGlkPSJncm91cDQwMy0zMyIgdHJhbnNmb3JtPSJ0cmFuc2xhdGUoODMuODE5MSwtMTIuODg5KSI+JiN4YTsJCQk8dGl0bGUgaWQ9InRpdGxlMTUwMTAxIj5NaWNyb3NvZnQ8L3RpdGxlPiYjeGE7CQkJPGcgaWQ9InNoYXBlNDA0LTM0IiB0cmFuc2Zvcm09InRyYW5zbGF0ZSgwLC00LjI2NTMpIj4mI3hhOwkJCQk8dGl0bGUgaWQ9InRpdGxlMTUwMTAzIj5IVFRQIEFQSSBBcHA8L3RpdGxlPiYjeGE7CQkJCTxwYXRoIGlkPSJwYXRoMTUwMTA1IiBpbmtzY2FwZTpjb25uZWN0b3ItY3VydmF0dXJlPSIwIiBzdHlsZT0iZmlsbDojRjI1MDIyOyIgZD0iTTAsODcuODl2My44MmgzLjg0di0zLjgySDB6Ii8+JiN4YTsJCQk8L2c+JiN4YTsJCQk8ZyBpZD0ic2hhcGU0MDUtMzYiIHRyYW5zZm9ybT0idHJhbnNsYXRlKDQuMjYyOCwtNC4yNjUzKSI+JiN4YTsJCQkJPHRpdGxlIGlkPSJ0aXRsZTE1MDEwOCI+SFRUUCBBUEkgQXBwLjE0NjE8L3RpdGxlPiYjeGE7CQkJCTxwYXRoIGlkPSJwYXRoMTUwMTEwIiBpbmtzY2FwZTpjb25uZWN0b3ItY3VydmF0dXJlPSIwIiBzdHlsZT0iZmlsbDojN0ZCQTAwOyIgZD0iTTAsODcuODl2My44MmgzLjg0di0zLjgySDB6Ii8+JiN4YTsJCQk8L2c+JiN4YTsJCQk8ZyBpZD0ic2hhcGU0MDYtMzgiIHRyYW5zZm9ybT0idHJhbnNsYXRlKDQuMjYyOCkiPiYjeGE7CQkJCTx0aXRsZSBpZD0idGl0bGUxNTAxMTMiPkhUVFAgQVBJIEFwcC4xNDYyPC90aXRsZT4mI3hhOwkJCQk8cGF0aCBpZD0icGF0aDE1MDExNSIgaW5rc2NhcGU6Y29ubmVjdG9yLWN1cnZhdHVyZT0iMCIgc3R5bGU9ImZpbGw6I0ZGQjkwMDsiIGQ9Ik0wLDg3Ljg5djMuODJoMy44NHYtMy44MkgweiIvPiYjeGE7CQkJPC9nPiYjeGE7CQkJPGcgaWQ9InNoYXBlNDA3LTQwIj4mI3hhOwkJCQk8dGl0bGUgaWQ9InRpdGxlMTUwMTE4Ij5IVFRQIEFQSSBBcHAuMTQ2MzwvdGl0bGU+JiN4YTsJCQkJPHBhdGggaWQ9InBhdGgxNTAxMjAiIGlua3NjYXBlOmNvbm5lY3Rvci1jdXJ2YXR1cmU9IjAiIHN0eWxlPSJmaWxsOiMwMEE0RUY7IiBkPSJNMCw4Ny44OXYzLjgyaDMuODR2LTMuODJIMHoiLz4mI3hhOwkJCTwvZz4mI3hhOwkJPC9nPiYjeGE7CQk8ZyBpZD0ic2hhcGU0MDgtNDIiIHRyYW5zZm9ybT0idHJhbnNsYXRlKDc1LjExOTgsLTUxLjU2NzIpIj4mI3hhOwkJCTx0aXRsZSBpZD0idGl0bGUxNTAxMjQiPnBhdGg3OTU8L3RpdGxlPiYjeGE7CQkJPHBhdGggaWQ9InBhdGgxNTAxMjYiIGlua3NjYXBlOmNvbm5lY3Rvci1jdXJ2YXR1cmU9IjAiIGQ9Ik0xMy43Niw5MC40OWgtMi4wM2wwLjUxLDAuOTRsMC41LDAuMjd2MC4wMWgwLjAxbDAsMFY5MS43bDAuNS0wLjI3ICAgICBMMTMuNzYsOTAuNDl6IE0yNS41LDczLjY1bC0xLjc5LDAuMjNsLTAuMi0wLjA3bC0yLjQ0LTAuNDhoLTQuMDNsLTMuNzIsMC42aC0xLjE4bC0zLjcyLTAuNkg0LjRsLTIuNDMsMC40OGwtMC4xOSwwLjA3TDAsNzMuNjUgICAgIHYwLjcybDAuOTYsMC4xM2wwLjczLDMuMzhsMC42MywwLjYzbDEuOTIsMC40N2gzLjI1bDIuODQtMC42NGwxLjQ3LTIuMzVsMC41OS0wLjY3aDAuNjdsMC41OSwwLjY3bDEuNDcsMi4zNWwyLjg0LDAuNjRoMy4yNSAgICAgbDEuOTItMC40N2wwLjYzLTAuNjNsMC43My0zLjM4bDAuOTYtMC4xM0wyNS41LDczLjY1eiBNMTAuNzgsNzUuNDdsLTAuOCwyLjI2bC0yLjY3LDAuNThINC4xOGwtMS40Mi0wLjM3bC0wLjUyLTAuNDVsLTAuMzktMi41ICAgICBsMC40My0wLjUybDIuMDktMC40aDMuOTlsMi40NCwwLjM3TDEwLjc4LDc1LjQ3eiBNMjMuMjUsNzcuNDlsLTAuNTIsMC40NWwtMS40MiwwLjM2aC0zLjE0bC0yLjY2LTAuNTdsLTAuODEtMi4yNXYtMS4wNSAgICAgbDIuNDQtMC4zN2gzLjk4bDIuMDksMC40bDAuNDMsMC41MkwyMy4yNSw3Ny40OXoiLz4mI3hhOwkJPC9nPiYjeGE7CQk8ZyBpZD0ic2hhcGU0MDktNDQiIHRyYW5zZm9ybT0idHJhbnNsYXRlKDAuMDY3NjI4NywtNy4wMjU3MSkiPiYjeGE7CQkJPHRpdGxlIGlkPSJ0aXRsZTE1MDEyOSI+U2hlZXQuNDA5PC90aXRsZT4mI3hhOwkJCTxwYXRoIGlkPSJwYXRoMTUwMTMxIiBpbmtzY2FwZTpjb25uZWN0b3ItY3VydmF0dXJlPSIwIiBzdHlsZT0iZmlsbDojMDA5MjQ1OyIgZD0iTTI4LjY3LDkxLjcxYy0wLjI3LDAtMC41NC0wLjEzLTAuNzQtMC4zMyAgICAgTDAuNDEsNjMuODVjLTAuNDEtMC40LTAuNDEtMS4wOCwwLTEuNDljMC40LTAuNCwxLjA4LTAuNCwxLjQ4LDBsMjcuNTMsMjcuNTNjMC40LDAuNCwwLjQsMS4wOCwwLDEuNDkgICAgIEMyOS4xNSw5MS41MSwyOC44OCw5MS43MSwyOC42Nyw5MS43MXoiLz4mI3hhOwkJPC9nPiYjeGE7CQk8ZyBpZD0ic2hhcGU0MTAtNDYiIHRyYW5zZm9ybT0idHJhbnNsYXRlKDMuOTIyNDYsLTExLjAxNTgpIj4mI3hhOwkJCTx0aXRsZSBpZD0idGl0bGUxNTAxMzQiPlNoZWV0LjQxMDwvdGl0bGU+JiN4YTsJCQk8cGF0aCBpZD0icGF0aDE1MDEzNiIgaW5rc2NhcGU6Y29ubmVjdG9yLWN1cnZhdHVyZT0iMCIgc3R5bGU9ImZpbGw6IzAwOTI0NTsiIGQ9Ik0yOC43NCw5MS43MWMtMC4yNywwLTAuNTQtMC4xMy0wLjc0LTAuMzMgICAgIEwwLjQxLDYzLjkyQzAsNjMuNTEsMCw2Mi44NCwwLjQxLDYyLjQzYzAuNC0wLjQsMS4wOC0wLjQsMS40OCwwbDI3LjYsMjcuNTNjMC40LDAuNCwwLjQsMS4wOCwwLDEuNDggICAgIEMyOS4yOCw5MS42NSwyOS4wMSw5MS43MSwyOC43NCw5MS43MXoiLz4mI3hhOwkJPC9nPiYjeGE7CQk8ZyBpZD0ic2hhcGU0MTEtNDgiIHRyYW5zZm9ybT0idHJhbnNsYXRlKDAsLTM0LjY4NTgpIj4mI3hhOwkJCTx0aXRsZSBpZD0idGl0bGUxNTAxMzkiPlNoZWV0LjQxMTwvdGl0bGU+JiN4YTsJCQk8cGF0aCBpZD0icGF0aDE1MDE0MSIgaW5rc2NhcGU6Y29ubmVjdG9yLWN1cnZhdHVyZT0iMCIgc3R5bGU9ImZpbGw6IzAwOTI0NTsiIGQ9Ik0xLjE1LDkxLjcxYy0wLjI3LDAtMC41NC0wLjEzLTAuNzQtMC4zMyAgICAgQzAsOTAuOTcsMCw5MC4yOSwwLjQxLDg5Ljg5TDI4LDYyLjQzYzAuNC0wLjQsMS4wOC0wLjQsMS40OSwwYzAuNCwwLjQxLDAuNCwxLjA4LDAsMS40OUwxLjk2LDkxLjQ0ICAgICBDMS42OSw5MS43MSwxLjQyLDkxLjcxLDEuMTUsOTEuNzF6Ii8+JiN4YTsJCTwvZz4mI3hhOwkJPGcgaWQ9InNoYXBlNDEyLTUwIiB0cmFuc2Zvcm09InRyYW5zbGF0ZSgzLjkyMjQ2LC0zMC42MjgxKSI+JiN4YTsJCQk8dGl0bGUgaWQ9InRpdGxlMTUwMTQ0Ij5TaGVldC40MTI8L3RpdGxlPiYjeGE7CQkJPHBhdGggaWQ9InBhdGgxNTAxNDYiIGlua3NjYXBlOmNvbm5lY3Rvci1jdXJ2YXR1cmU9IjAiIHN0eWxlPSJmaWxsOiMwMDkyNDU7IiBkPSJNMS4xNSw5MS43MWMtMC4yNywwLTAuNTQtMC4xMy0wLjc0LTAuMzMgICAgIEMwLDkwLjk3LDAsOTAuMjksMC40MSw4OS44OWwyNy41Mi0yNy41M2MwLjQxLTAuNCwxLjA4LTAuNCwxLjQ5LDBjMC40LDAuNDEsMC40LDEuMDksMCwxLjQ5TDEuODksOTEuMzggICAgIEMxLjY5LDkxLjUxLDEuNDIsOTEuNzEsMS4xNSw5MS43MXoiLz4mI3hhOwkJPC9nPiYjeGE7CQk8ZyBpZD0ic2hhcGU0MTMtNTIiIHRyYW5zZm9ybT0idHJhbnNsYXRlKDI3LjcyNzgsLTYyLjE0MzEpIj4mI3hhOwkJCTx0aXRsZSBpZD0idGl0bGUxNTAxNDkiPlNoZWV0LjQxMzwvdGl0bGU+JiN4YTsJCQk8cGF0aCBpZD0icGF0aDE1MDE1MSIgaW5rc2NhcGU6Y29ubmVjdG9yLWN1cnZhdHVyZT0iMCIgc3R5bGU9ImZpbGw6IzAwOTI0NTsiIGQ9Ik00Ljk0LDkxLjcxSDEuMDFDMC40MSw5MS43MSwwLDkxLjI0LDAsOTAuNyAgICAgYzAtMC42MSwwLjQ3LTEuMDEsMS4wMS0xLjAxaDMuOTNjMC42MSwwLDEuMDEsMC40NywxLjAxLDEuMDFDNS45NSw5MS4xNyw1LjQ4LDkxLjcxLDQuOTQsOTEuNzF6Ii8+JiN4YTsJCTwvZz4mI3hhOwkJPGcgaWQ9InNoYXBlNDE0LTU0IiB0cmFuc2Zvcm09InRyYW5zbGF0ZSgzMS42NTAyLC01OC4yODgyKSI+JiN4YTsJCQk8dGl0bGUgaWQ9InRpdGxlMTUwMTU0Ij5TaGVldC40MTQ8L3RpdGxlPiYjeGE7CQkJPHBhdGggaWQ9InBhdGgxNTAxNTYiIGlua3NjYXBlOmNvbm5lY3Rvci1jdXJ2YXR1cmU9IjAiIHN0eWxlPSJmaWxsOiMwMDkyNDU7IiBkPSJNMS4wMSw5MS43MUMwLjQxLDkxLjcxLDAsOTEuMjQsMCw5MC43di0zLjkyICAgICBjMC0wLjYxLDAuNDctMS4wMiwxLjAxLTEuMDJjMC42MSwwLDEuMDIsMC40OCwxLjAyLDEuMDJ2My45MkMyLjAzLDkxLjI0LDEuNTYsOTEuNzEsMS4wMSw5MS43MXoiLz4mI3hhOwkJPC9nPiYjeGE7CQk8ZyBpZD0ic2hhcGU0MTUtNTYiIHRyYW5zZm9ybT0idHJhbnNsYXRlKDMxLjUxNSwtNjIuMTQzMSkiPiYjeGE7CQkJPHRpdGxlIGlkPSJ0aXRsZTE1MDE1OSI+U2hlZXQuNDE1PC90aXRsZT4mI3hhOwkJCTxwYXRoIGlkPSJwYXRoMTUwMTYxIiBpbmtzY2FwZTpjb25uZWN0b3ItY3VydmF0dXJlPSIwIiBzdHlsZT0iZmlsbDojMDA5MjQ1OyIgZD0iTTEuMTUsOTEuNzFjLTAuMjcsMC0wLjU0LTAuMTMtMC43NC0wLjMzICAgICBDMCw5MC45NywwLDkwLjI5LDAuNDEsODkuODlMNi4yOSw4NGMwLjQxLTAuNCwxLjA4LTAuNCwxLjQ5LDBjMC40LDAuNDEsMC40LDEuMDksMCwxLjQ5bC01Ljg5LDUuODkgICAgIEMxLjY5LDkxLjUxLDEuNDIsOTEuNzEsMS4xNSw5MS43MXoiLz4mI3hhOwkJPC9nPiYjeGE7CQk8ZyBpZD0ic2hhcGU0MTYtNTgiIHRyYW5zZm9ybT0icm90YXRlKC00NSwtMzguNDU3ODUsMS4zNjk0NjMpIj4mI3hhOwkJCTx0aXRsZSBpZD0idGl0bGUxNTAxNjQiPlNoZWV0LjQxNjwvdGl0bGU+JiN4YTsJCQk8Y2lyY2xlIGlkPSJlbGxpcHNlMTUwMTY2IiBzdHlsZT0iZmlsbDojQzlEQTJBOyIgY3g9IjUuNjgiIGN5PSI4Ni4wMyIgcj0iNS42OCIvPiYjeGE7CQk8L2c+JiN4YTsJCTxnIGlkPSJzaGFwZTQxNy02MCIgdHJhbnNmb3JtPSJyb3RhdGUoLTQ0Ljk5NTksLTQwLjIwNDM3MywxNC4yOTA0NDMpIj4mI3hhOwkJCTx0aXRsZSBpZD0idGl0bGUxNTAxNjkiPlNoZWV0LjQxNzwvdGl0bGU+JiN4YTsJCQkmI3hhOwkJCQk8cmVjdCBpZD0icmVjdDE1MDE3MSIgeD0iMCIgeT0iOTAuNSIgdHJhbnNmb3JtPSJtYXRyaXgoLTEgMi4zODc2NDVlLTA2IC0yLjM4NzY0NWUtMDYgLTEgMjguNjA5NSAxODIuMjEyNCkiIHN0eWxlPSJmaWxsOiMwMDkyNDU7IiB3aWR0aD0iMjguNjEiIGhlaWdodD0iMS4yMiIvPiYjeGE7CQk8L2c+JiN4YTsJCTxnIGlkPSJzaGFwZTQxOC02MiIgdHJhbnNmb3JtPSJ0cmFuc2xhdGUoMjkuNzU2NiwtNjIuNDgxMikiPiYjeGE7CQkJPHRpdGxlIGlkPSJ0aXRsZTE1MDE3NCI+U2hlZXQuNDE4PC90aXRsZT4mI3hhOwkJCTxwYXRoIGlkPSJwYXRoMTUwMTc2IiBpbmtzY2FwZTpjb25uZWN0b3ItY3VydmF0dXJlPSIwIiBzdHlsZT0iZmlsbDojMjJCNTczOyIgZD0iTTAsNzcuMzFsNy43MS03LjcxbDE0LjM0LDEyLjExbC05Ljk0LDEwICAgICBMMCw3Ny4zMXoiLz4mI3hhOwkJPC9nPiYjeGE7CQk8ZyBpZD0ic2hhcGU0MTktNjQiIHRyYW5zZm9ybT0idHJhbnNsYXRlKDM3LjYwMTUsLTUxLjk5ODgpIj4mI3hhOwkJCTx0aXRsZSBpZD0idGl0bGUxNTAxNzkiPlNoZWV0LjQxOTwvdGl0bGU+JiN4YTsJCQk8cGF0aCBpZD0icGF0aDE1MDE4MSIgaW5rc2NhcGU6Y29ubmVjdG9yLWN1cnZhdHVyZT0iMCIgc3R5bGU9ImZpbGw6IzIyQjU3MzsiIGQ9Ik0yNC42OCw3MS41Nkw0LjQ2LDkxLjcxTDAsNzQuOTRsNy44NC03LjkxICAgICBMMjQuNjgsNzEuNTZ6Ii8+JiN4YTsJCTwvZz4mI3hhOwkJPGcgaWQ9InNoYXBlNDIwLTY2IiB0cmFuc2Zvcm09InRyYW5zbGF0ZSgxNC44NzgzLC02LjY4NzU3KSI+JiN4YTsJCQk8dGl0bGUgaWQ9InRpdGxlMTUwMTg0Ij5TaGVldC40MjA8L3RpdGxlPiYjeGE7CQkJPHBhdGggaWQ9InBhdGgxNTAxODYiIGlua3NjYXBlOmNvbm5lY3Rvci1jdXJ2YXR1cmU9IjAiIHN0eWxlPSJmaWxsOiMyMkI1NzM7IiBkPSJNMjIuMjUsODYuMTdINS41NUMyLjUsODYuMTcsMCw4OC42NywwLDkxLjcxICAgICBoMjcuODZDMjcuODYsODguNzQsMjUuMzYsODYuMTcsMjIuMjUsODYuMTd6Ii8+JiN4YTsJCTwvZz4mI3hhOwkJPGcgaWQ9InNoYXBlNDIxLTY4IiB0cmFuc2Zvcm09InRyYW5zbGF0ZSgxMy44NjUyKSI+JiN4YTsJCQk8dGl0bGUgaWQ9InRpdGxlMTUwMTg5Ij5TaGVldC40MjE8L3RpdGxlPiYjeGE7CQkJPHJlY3QgaWQ9InJlY3QxNTAxOTEiIHg9IjAiIHk9Ijg0LjIxIiBzdHlsZT0iZmlsbDojMDBBRUVGOyIgd2lkdGg9IjEyMC42NCIgaGVpZ2h0PSI3LjUxIi8+JiN4YTsJCTwvZz4mI3hhOwk8L2c+JiN4YTs8L2c+JiN4YTs8L3N2Zz4=;" vertex="1" parent="dQPvW1LIH_hYdUgcrzJX-32">
          <mxGeometry y="80" width="178.67" height="120" as="geometry" />
        </mxCell>
        <mxCell id="dQPvW1LIH_hYdUgcrzJX-11" value="&lt;span style=&quot;font-size: 34px&quot;&gt;&lt;b&gt;DAO&lt;br&gt;Governor&lt;/b&gt;&lt;/span&gt;" style="text;html=1;align=center;verticalAlign=middle;resizable=0;points=[];autosize=1;" vertex="1" parent="dQPvW1LIH_hYdUgcrzJX-32">
          <mxGeometry x="13.670000000000073" width="170" height="50" as="geometry" />
        </mxCell>
        <mxCell id="dQPvW1LIH_hYdUgcrzJX-33" value="" style="group" vertex="1" connectable="0" parent="1">
          <mxGeometry x="1579.7" y="975" width="160.79999999999995" height="251.16999999999985" as="geometry" />
        </mxCell>
        <mxCell id="1a8abee3a6cfdf20-12" value="" style="verticalLabelPosition=bottom;html=1;verticalAlign=top;strokeWidth=1;dashed=0;shape=mxgraph.aws3d.redshift;fillColor=#CC0000;strokeColor=#E6E6E6;aspect=fixed;rounded=1;shadow=0;comic=0;fontSize=12" parent="dQPvW1LIH_hYdUgcrzJX-33" vertex="1">
          <mxGeometry y="61.169999999999845" width="150" height="190" as="geometry" />
        </mxCell>
        <mxCell id="dQPvW1LIH_hYdUgcrzJX-9" value="&lt;font style=&quot;font-size: 34px&quot;&gt;&lt;b&gt;SubDAO&lt;br&gt;Guard&lt;/b&gt;&lt;/font&gt;" style="text;html=1;align=center;verticalAlign=middle;resizable=0;points=[];autosize=1;" vertex="1" parent="dQPvW1LIH_hYdUgcrzJX-33">
          <mxGeometry x="0.7999999999999545" width="160" height="50" as="geometry" />
        </mxCell>
        <mxCell id="dQPvW1LIH_hYdUgcrzJX-34" value="" style="group" vertex="1" connectable="0" parent="1">
          <mxGeometry x="1890" y="1174" width="181.5" height="268.5999999999999" as="geometry" />
        </mxCell>
        <mxCell id="1a8abee3a6cfdf20-20" value="" style="verticalLabelPosition=bottom;html=1;verticalAlign=top;strokeWidth=1;dashed=0;shape=mxgraph.aws3d.simpleDb2;fillColor=#004C99;strokeColor=#99CCFF;aspect=fixed;rounded=1;shadow=0;comic=0;fontSize=12" parent="dQPvW1LIH_hYdUgcrzJX-34" vertex="1">
          <mxGeometry y="76" width="181.5" height="192.6" as="geometry" />
        </mxCell>
        <mxCell id="dQPvW1LIH_hYdUgcrzJX-12" value="&lt;span style=&quot;font-size: 34px&quot;&gt;&lt;b&gt;Asset&lt;br&gt;Vault&lt;/b&gt;&lt;/span&gt;" style="text;html=1;align=center;verticalAlign=middle;resizable=0;points=[];autosize=1;" vertex="1" parent="dQPvW1LIH_hYdUgcrzJX-34">
          <mxGeometry x="32" width="110" height="50" as="geometry" />
        </mxCell>
        <mxCell id="dQPvW1LIH_hYdUgcrzJX-35" value="" style="group" vertex="1" connectable="0" parent="1">
          <mxGeometry x="1251" y="810" width="181.5" height="264.29999999999995" as="geometry" />
        </mxCell>
        <mxCell id="dQPvW1LIH_hYdUgcrzJX-14" value="" style="verticalLabelPosition=bottom;html=1;verticalAlign=top;strokeWidth=1;dashed=0;shape=mxgraph.aws3d.simpleDb2;fillColor=#ECECEC;strokeColor=#5E5E5E;aspect=fixed;rounded=1;shadow=0;comic=0;fontSize=12" vertex="1" parent="dQPvW1LIH_hYdUgcrzJX-35">
          <mxGeometry y="71.70000000000005" width="181.5" height="192.6" as="geometry" />
        </mxCell>
        <mxCell id="dQPvW1LIH_hYdUgcrzJX-22" value="&lt;font style=&quot;font-size: 34px&quot;&gt;&lt;b&gt;Template&lt;br&gt;Library&lt;/b&gt;&lt;/font&gt;" style="text;html=1;align=center;verticalAlign=middle;resizable=0;points=[];autosize=1;" vertex="1" parent="dQPvW1LIH_hYdUgcrzJX-35">
          <mxGeometry x="10.75" width="160" height="50" as="geometry" />
        </mxCell>
        <mxCell id="dQPvW1LIH_hYdUgcrzJX-36" value="" style="group" vertex="1" connectable="0" parent="1">
          <mxGeometry x="1010" y="684" width="127" height="200" as="geometry" />
        </mxCell>
        <mxCell id="dQPvW1LIH_hYdUgcrzJX-16" value="" style="verticalLabelPosition=bottom;html=1;verticalAlign=top;strokeWidth=1;dashed=0;shape=mxgraph.aws3d.dataCenter;fillColor=#ffffff;strokeColor=#5E5E5E;aspect=fixed;rounded=1;shadow=0;comic=0;fontSize=12" vertex="1" parent="dQPvW1LIH_hYdUgcrzJX-36">
          <mxGeometry y="58" width="123" height="142" as="geometry" />
        </mxCell>
        <mxCell id="dQPvW1LIH_hYdUgcrzJX-17" value="" style="verticalLabelPosition=bottom;html=1;verticalAlign=top;strokeWidth=1;dashed=0;shape=mxgraph.aws3d.application2;fillColor=#86E83A;strokeColor=#B0F373;aspect=fixed;rounded=1;shadow=0;comic=0;fontSize=12" vertex="1" parent="dQPvW1LIH_hYdUgcrzJX-36">
          <mxGeometry x="30.5" y="63" width="62" height="53" as="geometry" />
        </mxCell>
        <mxCell id="dQPvW1LIH_hYdUgcrzJX-24" value="&lt;span style=&quot;font-size: 34px&quot;&gt;&lt;b&gt;DAO 1&lt;/b&gt;&lt;/span&gt;" style="text;html=1;align=center;verticalAlign=middle;resizable=0;points=[];autosize=1;" vertex="1" parent="dQPvW1LIH_hYdUgcrzJX-36">
          <mxGeometry x="7" width="120" height="30" as="geometry" />
        </mxCell>
        <mxCell id="dQPvW1LIH_hYdUgcrzJX-37" value="" style="group" vertex="1" connectable="0" parent="1">
          <mxGeometry x="760" y="535" width="123" height="207" as="geometry" />
        </mxCell>
        <mxCell id="dQPvW1LIH_hYdUgcrzJX-18" value="" style="verticalLabelPosition=bottom;html=1;verticalAlign=top;strokeWidth=1;dashed=0;shape=mxgraph.aws3d.dataCenter;fillColor=#ffffff;strokeColor=#5E5E5E;aspect=fixed;rounded=1;shadow=0;comic=0;fontSize=12" vertex="1" parent="dQPvW1LIH_hYdUgcrzJX-37">
          <mxGeometry y="65" width="123" height="142" as="geometry" />
        </mxCell>
        <mxCell id="dQPvW1LIH_hYdUgcrzJX-19" value="" style="verticalLabelPosition=bottom;html=1;verticalAlign=top;strokeWidth=1;dashed=0;shape=mxgraph.aws3d.application2;fillColor=#86E83A;strokeColor=#B0F373;aspect=fixed;rounded=1;shadow=0;comic=0;fontSize=12" vertex="1" parent="dQPvW1LIH_hYdUgcrzJX-37">
          <mxGeometry x="30.5" y="70" width="62" height="53" as="geometry" />
        </mxCell>
        <mxCell id="dQPvW1LIH_hYdUgcrzJX-23" value="&lt;span style=&quot;font-size: 34px&quot;&gt;&lt;b&gt;DAO 2&lt;/b&gt;&lt;/span&gt;" style="text;html=1;align=center;verticalAlign=middle;resizable=0;points=[];autosize=1;" vertex="1" parent="dQPvW1LIH_hYdUgcrzJX-37">
          <mxGeometry x="3" width="120" height="30" as="geometry" />
        </mxCell>
      </root>
    </mxGraphModel>
  </diagram>
</mxfile>
